<svg width="177" height="33" viewBox="0 0 177 33" fill="none" xmlns="http://www.w3.org/2000/svg">
<path d="M17.142 2.2H22.65V26H17.142V2.2ZM6.33 26H0.822V2.2H6.33V26ZM17.55 16.242H5.922V11.584H17.55V16.242ZM35.625 26.272C34.1063 26.272 32.7463 25.9773 31.545 25.388C30.3663 24.7987 29.4483 23.9033 28.791 22.702C28.1337 21.478 27.805 19.9253 27.805 18.044V7.708H33.109V17.262C33.109 18.7807 33.4263 19.9027 34.061 20.628C34.7183 21.3307 35.6363 21.682 36.815 21.682C37.631 21.682 38.3563 21.512 38.991 21.172C39.6257 20.8093 40.1243 20.2653 40.487 19.54C40.8497 18.792 41.031 17.8627 41.031 16.752V7.708H46.335V26H41.303V20.968L42.221 22.43C41.609 23.6993 40.7023 24.6627 39.501 25.32C38.3223 25.9547 37.0303 26.272 35.625 26.272ZM51.8948 26V7.3C51.8948 5.23733 52.5068 3.594 53.7308 2.37C54.9548 1.12333 56.7001 0.499998 58.9668 0.499998C59.7374 0.499998 60.4741 0.579332 61.1768 0.737999C61.9021 0.896665 62.5141 1.146 63.0128 1.486L61.6188 5.328C61.3241 5.124 60.9954 4.96533 60.6328 4.852C60.2701 4.73867 59.8848 4.682 59.4768 4.682C58.7061 4.682 58.1054 4.90867 57.6748 5.362C57.2668 5.79267 57.0628 6.45 57.0628 7.334V9.034L57.1988 11.312V26H51.8948ZM49.0728 12.196V8.116H61.7548V12.196H49.0728ZM65.3088 26V7.3C65.3088 5.23733 65.9208 3.594 67.1448 2.37C68.3688 1.12333 70.1142 0.499998 72.3808 0.499998C73.1515 0.499998 73.8882 0.579332 74.5908 0.737999C75.3162 0.896665 75.9282 1.146 76.4268 1.486L75.0328 5.328C74.7382 5.124 74.4095 4.96533 74.0468 4.852C73.6842 4.73867 73.2988 4.682 72.8908 4.682C72.1202 4.682 71.5195 4.90867 71.0888 5.362C70.6808 5.79267 70.4768 6.45 70.4768 7.334V9.034L70.6128 11.312V26H65.3088ZM62.4868 12.196V8.116H75.1688V12.196H62.4868ZM78.1853 26V2.2H88.9973C91.5813 2.2 93.8593 2.69867 95.8313 3.696C97.8033 4.67067 99.3446 6.042 100.455 7.81C101.566 9.578 102.121 11.6747 102.121 14.1C102.121 16.5027 101.566 18.5993 100.455 20.39C99.3446 22.158 97.8033 23.5407 95.8313 24.538C93.8593 25.5127 91.5813 26 88.9973 26H78.1853ZM83.6933 21.478H88.7253C90.3119 21.478 91.6833 21.1833 92.8393 20.594C94.0179 19.982 94.9246 19.1207 95.5593 18.01C96.2166 16.8993 96.5453 15.596 96.5453 14.1C96.5453 12.5813 96.2166 11.278 95.5593 10.19C94.9246 9.07933 94.0179 8.22933 92.8393 7.64C91.6833 7.028 90.3119 6.722 88.7253 6.722H83.6933V21.478ZM117.121 26V22.43L116.781 21.648V15.256C116.781 14.1227 116.43 13.2387 115.727 12.604C115.047 11.9693 113.993 11.652 112.565 11.652C111.59 11.652 110.627 11.8107 109.675 12.128C108.746 12.4227 107.952 12.8307 107.295 13.352L105.391 9.646C106.388 8.94333 107.59 8.39933 108.995 8.014C110.4 7.62867 111.828 7.436 113.279 7.436C116.067 7.436 118.232 8.09333 119.773 9.408C121.314 10.7227 122.085 12.774 122.085 15.562V26H117.121ZM111.545 26.272C110.117 26.272 108.893 26.034 107.873 25.558C106.853 25.0593 106.071 24.3907 105.527 23.552C104.983 22.7133 104.711 21.7727 104.711 20.73C104.711 19.642 104.972 18.69 105.493 17.874C106.037 17.058 106.887 16.4233 108.043 15.97C109.199 15.494 110.706 15.256 112.565 15.256H117.427V18.35H113.143C111.896 18.35 111.035 18.554 110.559 18.962C110.106 19.37 109.879 19.88 109.879 20.492C109.879 21.172 110.14 21.716 110.661 22.124C111.205 22.5093 111.942 22.702 112.871 22.702C113.755 22.702 114.548 22.498 115.251 22.09C115.954 21.6593 116.464 21.036 116.781 20.22L117.597 22.668C117.212 23.8467 116.509 24.742 115.489 25.354C114.469 25.966 113.154 26.272 111.545 26.272ZM130.735 26L124.139 7.708H129.137L134.611 23.45H132.231L137.943 7.708H142.431L147.973 23.45H145.593L151.237 7.708H155.929L149.299 26H144.165L139.303 12.502H140.867L135.835 26H130.735ZM166.499 32.868C164.777 32.868 163.111 32.6527 161.501 32.222C159.915 31.814 158.589 31.1907 157.523 30.352L159.631 26.544C160.402 27.1787 161.377 27.6773 162.555 28.04C163.757 28.4253 164.935 28.618 166.091 28.618C167.973 28.618 169.333 28.1987 170.171 27.36C171.033 26.5213 171.463 25.2747 171.463 23.62V20.866L171.803 16.276L171.735 11.652V7.708H176.767V22.94C176.767 26.34 175.883 28.8447 174.115 30.454C172.347 32.0633 169.809 32.868 166.499 32.868ZM165.683 25.116C163.983 25.116 162.442 24.7533 161.059 24.028C159.699 23.28 158.6 22.2487 157.761 20.934C156.945 19.5967 156.537 18.044 156.537 16.276C156.537 14.4853 156.945 12.9327 157.761 11.618C158.6 10.2807 159.699 9.24933 161.059 8.524C162.442 7.79867 163.983 7.436 165.683 7.436C167.225 7.436 168.585 7.75333 169.763 8.388C170.942 9 171.86 9.96333 172.517 11.278C173.175 12.57 173.503 14.236 173.503 16.276C173.503 18.2933 173.175 19.9593 172.517 21.274C171.86 22.566 170.942 23.5293 169.763 24.164C168.585 24.7987 167.225 25.116 165.683 25.116ZM166.737 20.764C167.667 20.764 168.494 20.5827 169.219 20.22C169.945 19.8347 170.511 19.302 170.919 18.622C171.327 17.942 171.531 17.16 171.531 16.276C171.531 15.3693 171.327 14.5873 170.919 13.93C170.511 13.25 169.945 12.7287 169.219 12.366C168.494 11.9807 167.667 11.788 166.737 11.788C165.808 11.788 164.981 11.9807 164.255 12.366C163.53 12.7287 162.952 13.25 162.521 13.93C162.113 14.5873 161.909 15.3693 161.909 16.276C161.909 17.16 162.113 17.942 162.521 18.622C162.952 19.302 163.53 19.8347 164.255 20.22C164.981 20.5827 165.808 20.764 166.737 20.764Z" fill="black"/>
</svg>
